HIERARCHY
ROOT Hips
{
  OFFSET -33.9132 29.2015 117.021
  CHANNELS 6 Xposition Yposition Zposition Zrotation Xrotation Yrotation
  JOINT LeftUpLeg
  {
    OFFSET 8.64259 1.95398 -2.38835
    CHANNELS 3 Zrotation Xrotation Yrotation
    JOINT LeftLeg
    {
      OFFSET 43.7702 0 0
      CHANNELS 3 Zrotation Xrotation Yrotation
      JOINT LeftFoot
      {
        OFFSET 40.6238 0 0
        CHANNELS 3 Zrotation Xrotation Yrotation
        JOINT LeftToeBase
        {
          OFFSET 12.7242 0 0
          CHANNELS 3 Zrotation Xrotation Yrotation
          End Site
          {
            OFFSET 0 0 0
          }
        }
      }
    }
  }
  JOINT RightUpLeg
  {
    OFFSET -8.2249 1.95398 -2.59336
    CHANNELS 3 Zrotation Xrotation Yrotation
    JOINT RightLeg
    {
      OFFSET 43.5653 0 0
      CHANNELS 3 Zrotation Xrotation Yrotation
      JOINT RightFoot
      {
        OFFSET 40.6238 0 0
        CHANNELS 3 Zrotation Xrotation Yrotation
        JOINT RightToeBase
        {
          OFFSET 12.7242 0 0
          CHANNELS 3 Zrotation Xrotation Yrotation
          End Site
          {
            OFFSET 0 0 0
          }
        }
      }
    }
  }
  JOINT Spine
  {
    OFFSET 0.165834 0.87714 6.61349
    CHANNELS 3 Zrotation Xrotation Yrotation
    JOINT Spine1
    {
      OFFSET 7.38963 1.71661e-005 0
      CHANNELS 3 Zrotation Xrotation Yrotation
      JOINT Spine2
      {
        OFFSET 11.9445 1.14441e-005 0
        CHANNELS 3 Zrotation Xrotation Yrotation
        JOINT Spine3
        {
          OFFSET 14.7254 4.19617e-005 0
          CHANNELS 3 Zrotation Xrotation Yrotation
          JOINT Spine4
          {
            OFFSET 10.9679 0 0
            CHANNELS 3 Zrotation Xrotation Yrotation
            JOINT RightShoulder
            {
              OFFSET 2.46616 -1.6653 3.69651
              CHANNELS 3 Zrotation Xrotation Yrotation
              JOINT RightArm
              {
                OFFSET 13.0012 0 0
                CHANNELS 3 Zrotation Xrotation Yrotation
                JOINT RightForeArm
                {
                  OFFSET 28.7848 1.62311e-005 0
                  CHANNELS 3 Zrotation Xrotation Yrotation
                  JOINT RightHand
                  {
                    OFFSET 26.5688 1.62095e-005 0
                    CHANNELS 3 Zrotation Xrotation Yrotation
                    End Site
                    {
                      OFFSET 0 0 0
                    }
                  }
                }
              }
            }
            JOINT LeftShoulder
            {
              OFFSET 2.38034 -1.29275 -3.7523
              CHANNELS 3 Zrotation Xrotation Yrotation
              JOINT LeftArm
              {
                OFFSET 16.3182 6.07031e-005 0
                CHANNELS 3 Zrotation Xrotation Yrotation
                JOINT LeftForeArm
                {
                  OFFSET 27.0901 0 0
                  CHANNELS 3 Zrotation Xrotation Yrotation
                  JOINT LeftHand
                  {
                    OFFSET 24.5451 1.51738e-005 0
                    CHANNELS 3 Zrotation Xrotation Yrotation
                    End Site
                    {
                      OFFSET 0 0 0
                    }
                  }
                }
              }
            }
            JOINT Neck
            {
              OFFSET 5.0226 -0.0266342 0
              CHANNELS 3 Zrotation Xrotation Yrotation
              JOINT Head
              {
                OFFSET 6.69364 2.86102e-005 0
                CHANNELS 3 Zrotation Xrotation Yrotation
                End Site
                {
                  OFFSET 0 0 0
                }
              }
            }
          }
        }
      }
    }
  }
}
MOTION
Frames:	11
Frame Time:	0.0416667
-314.979 84.9768 -273.932 85.955 4.68778 94.8469 -171.579 4.22526 110.238 -46.7852 44.0063 8.29182 102.476 28.8616 -3.86455 30.5786 -1.46642 5.63092 158.358 53.2441 85.3284 -103.245 -15.7537 -2.02516 88.5007 -28.8789 -10.444 16.5983 8.29366 -6.3628 -4.65971 4.9079 -89.6816 17.2143 -9.01135 2.2504 5.57215 -8.90354 2.64771 -17.2166 -9.26753 -0.585459 2.79601 -9.26754 -0.585463 111.568 2.97303 -42.5024 5.54664 28.6713 53.336 150.589 13.0692 -118.145 -15.6374 17.0213 -102.428 -59.4018 -49.0726 125.051 59.3037 59.6052 -93.1374 -103.787 1.44729 -123.861 -85.2908 -28.1032 20.7159 -4.49107 24.5879 11.7645 99.8201 20.2621 2.17343 
-311.039 89.0406 -270.823 84.7226 -2.66877 96.0636 -164.242 -5.3709 112.766 -23.6019 43.7935 3.65286 86.1884 20.3933 0.558585 40.0975 2.76579 7.37226 164.708 46.1729 93.44 -97.6922 -8.83514 -1.41223 88.1227 -25.4964 -11.5443 18.9489 6.69578 -5.6216 -3.98414 4.87085 -90.4044 17.2077 -8.05336 0.614459 5.56154 -8.0185 0.970601 -17.1687 -7.86328 -1.84984 2.84396 -7.86327 -1.84984 109.906 5.38967 -46.1708 3.10756 28.0078 49.2631 145.103 21.582 -124.12 -18.3069 18.4518 -97.6212 -60.4371 -47.5046 123.982 61.3419 42.7206 -97.8575 32.0617 -15.1066 -57.6957 16.3523 1.91251 -123.569 -6.62095 25.6398 14.6755 95.6431 20.1557 1.07335 
-306.982 90.2424 -267.307 83.6391 -13.6275 95.7847 -159.193 -14.4031 112.623 -8.2778 36.7553 0.588519 72.1871 11.8762 1.91597 51.6788 8.47843 7.19853 169.119 44.0119 100.682 -97.257 -1.43957 -2.49549 87.4272 -20.2955 -10.0844 22.2046 3.63506 -1.68116 -2.99248 4.97523 -91.28 16.9138 -6.55318 -1.45111 5.25897 -6.61066 -1.1601 -17.3799 -5.81326 -3.35919 2.63273 -5.81325 -3.35919 108.411 8.04722 -49.5621 0.539727 26.5151 43.2455 157.161 21.1119 -138.975 -13.2469 12.3012 -95.6646 -61.678 -45.0222 122.814 52.3743 27.7719 -97.4545 36.8622 -5.11524 -52.7009 39.3781 -31.5318 -67.9131 -7.8488 24.7629 22.1542 88.1798 14.8051 -3.08601 
-302.267 90.6543 -263.685 81.2386 -25.3471 93.8256 -161.624 -18.1091 107.158 -8.3359 26.8807 0.097433 60.4097 4.41042 4.63648 62.439 13.5253 6.21044 178.32 51.1733 100.901 -94.1094 3.73104 -3.88645 84.4421 -15.4513 -6.28667 20.2829 2.12457 5.43428 -1.9636 4.99197 -92.1452 16.8153 -4.96848 -3.47991 5.14981 -5.11675 -3.25767 -17.395 -3.6941 -4.81151 2.61763 -3.6941 -4.81151 106.667 12.2866 -52.886 5.67586 20.4417 22.155 173.618 17.2533 -174.259 -2.14874 2.40992 -89.3271 -63.3887 -39.2922 121.687 38.0963 20.0814 -98.4089 31.8242 2.16404 -52.4592 36.2036 -27.363 -69.9481 -6.7486 21.7291 34.8169 72.0449 3.32559 -15.4769 
-296.593 91.3102 -259.601 76.3027 -34.9544 90.0412 -168.321 -19.5491 98.761 -8.73203 13.9234 1.47182 51.286 -2.94932 2.27442 45.2387 6.87177 0.903648 -170.585 59.0611 96.2236 -85.4844 0.0494282 -5.42774 82.3828 -14.6451 -5.3216 19.012 2.49155 5.99192 -1.1555 4.72953 -92.7393 17.3148 -3.68893 -4.88439 5.64056 -3.90009 -4.71766 -16.8373 -2.05325 -5.76463 3.17538 -2.05327 -5.76464 104.968 17.079 -56.9271 9.6119 18.1379 23.6911 175.607 11.402 -179.997 18.9243 -31.5868 -122.376 -67.2409 -21.9337 120.311 16.1738 22.5555 -103.288 29.7561 13.7675 -50.8178 37.8264 -28.7172 -69.5659 0.0177441 20.2544 45.2686 38.3413 -0.870051 -35.1972 
-290.334 92.1579 -254.769 71.9267 -40.3055 88.7359 -171.849 -20.3881 94.9788 -8.1431 7.66499 3.59368 48.4212 -5.86543 0.758881 14.1512 -7.12316 0.205583 -167.487 62.4496 96.5175 -74.2978 -7.0186 -6.04196 79.6644 -13.8422 -6.61476 18.95 2.35651 6.45834 -0.788981 4.59665 -93.4233 17.5503 -3.3269 -6.33126 5.8689 -3.60183 -6.17944 -16.5504 -1.27568 -7.03482 3.4623 -1.27569 -7.03483 103.628 21.5783 -61.4235 4.61414 17.6672 32.3318 -6.67179 -61.3948 -6.54455 158.335 6.59631 -2.49209 -72.8728 -1.39899 113.027 -13.2643 27.3291 -100.135 31.8709 29.2444 -50.6184 44.0265 -29.7976 -62.6286 15.711 25.3174 47.6134 -4.0674 11.5061 -41.7603 
-283.891 92.536 -249.854 70.3971 -42.1992 89.0888 -171.734 -23.0733 94.5545 -7.85688 2.97607 3.47712 50.5961 -3.53111 -0.554898 10.9235 -12.6274 5.95743 -169.432 62.1775 98.2978 -62.7498 -12.5099 -5.37112 78.0431 -12.8468 -5.62538 19.3678 1.77404 7.68983 -0.869755 4.66698 -93.9593 17.3592 -3.75685 -7.34261 5.67392 -4.07553 -7.17129 -16.704 -1.38477 -8.12686 3.3087 -1.38477 -8.12686 103.093 22.9574 -66.6549 4.41275 17.0792 37.0855 -4.36831 -25.8129 -5.01616 156.45 38.0134 2.64167 -75.3514 2.45605 106.753 -18.0214 19.8404 -94.6562 30.0758 33.0558 -48.0041 43.7781 -30.3382 -63.8014 30.5353 29.4605 41.2278 -32.3518 19.0623 -29.3896 
-277.827 92.5461 -245.009 70.0195 -43.3662 88.3131 -171.479 -23.6836 93.2287 -13.705 1.00589 1.49881 51.8938 -2.29765 -0.507135 13.9729 -9.39397 3.57688 -172.305 60.3897 99.1709 -52.0881 -18.3061 -4.02771 77.4241 -12.4306 -4.42309 18.3588 2.35728 7.16017 -0.880272 4.96919 -93.9884 16.7551 -3.77499 -7.41398 5.06952 -4.09678 -7.24182 -17.3052 -1.38082 -8.20026 2.7074 -1.38082 -8.20026 103.052 20.0395 -72.3789 6.83998 16.4525 42.7832 -4.10601 -19.7792 -4.94972 161.037 37.1459 1.15758 -79.4831 0.452583 89.2573 -25.7207 8.32055 -80.8833 35.5582 41.6294 -49.9059 57.4485 -37.2824 -59.0977 35.9612 27.1152 33.3224 -40.1212 16.2649 -17.3567 
-271.963 92.3878 -240.259 70.5568 -44.1148 87.6025 -170.588 -21.9385 91.9548 -25.0966 3.74315 -0.354531 50.977 -3.68195 -1.06734 6.05291 -6.86871 -6.4198 -175.761 57.1092 99.9716 -41.563 -23.5702 -1.8969 74.4157 -10.7228 -4.93295 21.0026 1.32891 7.06402 -0.960142 5.32483 -93.8039 16.0548 -3.81887 -7.05378 4.37129 -4.12489 -6.87991 -18.0211 -1.5299 -7.87019 1.99158 -1.52991 -7.8702 102.923 15.0052 -76.8429 11.6342 16.4677 45.3145 -4.08543 -19.3 -4.94282 162.55 29.098 -0.688363 -84.0611 -4.68208 77.1266 -14.6016 0.213428 -71.1489 34.1307 41.72 -49.4307 54.8887 -36.5839 -60.7365 31.781 24.4798 32.1345 -33.8715 13.7709 -14.2181 
-266.133 92.2043 -235.484 72.2316 -44.9456 87.6504 -168.765 -18.9917 91.2038 -39.9063 10.352 -2.14304 50.2534 -5.32103 -0.198087 6.19856 -2.12828 -13.351 -179.321 52.7661 101.041 -33.6734 -22.0339 0.814982 73.6564 -9.60719 -2.63126 21.8442 1.25926 6.21099 -1.04472 5.85111 -93.5275 15.0186 -3.81962 -6.52729 3.33775 -4.10259 -6.35369 -19.0782 -1.68746 -7.36886 0.934412 -1.68745 -7.36885 102.478 8.0453 -81.0071 19.3549 16.9246 43.6741 -4.25677 -23.0701 -4.98643 164.373 12.4916 -3.44747 -84.9531 -8.57876 76.3912 -12.0896 1.87443 -69.1315 28.1094 38.3568 -47.2974 39.3344 -28.8167 -66.705 24.9815 21.4612 31.7372 -22.8169 11.4315 -12.3073 
-260.415 91.8728 -230.689 74.7018 -45.8299 88.4765 -165.751 -15.4684 91.4387 -55.0873 19.2265 -3.78738 50.578 -6.05264 2.19243 12.9435 -4.62651 -5.05189 177.662 47.9343 101.98 -29.4255 -14.4533 3.17708 73.0392 -8.77359 -1.11533 21.8128 1.34429 5.97801 -1.10642 6.55304 -93.142 13.6409 -3.71917 -5.80626 1.96305 -3.9707 -5.63755 -20.4817 -1.80663 -6.65192 -0.46901 -1.8066 -6.65191 101.621 -0.506051 -84.3143 29.3069 16.8406 36.9745 -4.07562 -19.3483 -4.97001 165.712 0.623717 -5.14062 -86.6073 -13.3085 74.1478 -7.96412 4.02161 -65.1133 19.3694 32.4248 -44.2939 35.5917 -24.0885 -63.1135 24.0306 19.7424 28.1633 -16.2136 10.4512 -10.2464 
